# xmcd
#
# Track frame offsets:
#	150
#	1682
#	15888
#	37154
#	51877
#	64665
#	79541
#	98524
#	110886
#	128350
#	146227
#	163148
#	180387
#	197046
#
# Disc length: 2834 seconds
#
# Revision: 0
# Processed by: cddbd v1.4PL0 Copyright (c) Steve Scherf et al.
# Submitted via: audiograbber 1.80
#
DISCID=ab0b100e
DTITLE=Sramlikings - Kiálts az égbe!
DYEAR=1900
DGENRE=
TTITLE0=Intro
TTITLE1=Jódli az udvaron
TTITLE2=Hogyha egyszer házasodom
TTITLE3=Kiálts az égbe!
TTITLE4=Jódlidal
TTITLE5=Egy kis erotika
TTITLE6=Ohlala
TTITLE7=Szüreti bál
TTITLE8=Akik vágják a fát
TTITLE9=Tenisz
TTITLE10=Dombok felett
TTITLE11=Szerenád
TTITLE12=Ölelj át
TTITLE13=Lila tehén
EXTD=
EXTT0=
EXTT1=
EXTT2=
EXTT3=
EXTT4=
EXTT5=
EXTT6=
EXTT7=
EXTT8=
EXTT9=
EXTT10=
EXTT11=
EXTT12=
EXTT13=
PLAYORDER=
